<svg fill="none" height="94" viewBox="0 0 146 94" width="146" xmlns="http://www.w3.org/2000/svg" xmlns:xlink="http://www.w3.org/1999/xlink"><clipPath id="a"><path d="m0 0h146v94h-146z"/></clipPath><g clip-path="url(#a)" fill="#041367"><path d="m94.378-30.6181h-42.7632v-21.3819h42.7632z"/><path d="m51.6173 72.6181h42.7632v21.382h-42.7632z"/><path d="m124.618 42.3803v-42.763918h21.382v42.763918z"/><path d="m21.3816-.379846v42.763846h-21.3815964l-.0000036-42.76384z"/><path d="m124.617-.379978h-30.2385l-.0005-30.238122 15.12-15.1198 30.238 30.2386z"/><path d="m21.3782 42.3796h30.2381l.001 30.2385-15.1201 15.1194-30.23809-30.2386z"/><path d="m94.3805 72.6181-.0005-30.2385 30.238.0007 15.119 15.1186-30.238 30.2386z"/><path d="m51.6165-30.6174v30.238607h-30.2381l-15.11903-15.119307 30.23813-30.2386z"/></g></svg>