<svg fill="none" height="41" viewBox="0 0 159 41" width="159" xmlns="http://www.w3.org/2000/svg"><g fill="#fff"><path clip-rule="evenodd" d="m.833984 2.65308h5.200836v26.04542h10.74508v1.5194l-15.945916.0004zm117.521016 25.28872-.362-.4524c-.272.181-1.357.7691-2.986.7691-2.126 0-3.167-1.0857-3.167-3.1667v-15.7885h6.062v-1.40241h-6.062v-5.24775h-4.75v22.57436c0 4.3882 2.488 5.6549 5.293 5.6549 2.579 0 4.66-1.131 5.972-2.9406zm-61.1699-12.8931c0 4.2525-3.9358 7.7359-8.8669 7.7359-1.0857 0-2.081-.181-3.031-.4524-1.7643.4976-2.3072 1.4476-2.3072 2.3072 0 1.5381 1.7643 1.9453 4.6144 2.0357l4.7049.1358c4.7048.1357 8.2335 1.9905 8.0978 5.8358-.1357 4.162-4.3882 7.555-12.3503 7.555-6.0621 0-10.405-1.9906-10.405-5.5645 0-2.3524 1.9-3.8001 3.981-4.3882-1.3572-.6786-2.2167-1.7643-2.2167-3.4381 0-2.7596 2.2167-4.343 4.5692-5.0216-2.6692-1.3572-4.4335-3.8453-4.4335-6.7406 0-4.4335 3.8906-7.87164 8.7312-7.87164 2.3976 0 4.5691.90478 6.1525 2.21672l6.243-3.25722v4.29774h-5.2025c1.0857 1.2667 1.7191 2.85 1.7191 4.6144zm-12.9384 0c0 3.6643 1.131 6.3787 4.0715 6.3787 2.9858 0 4.162-2.7144 4.162-6.3787 0-3.7096-1.131-6.46923-4.2072-6.46923-3.0311 0-4.0263 2.75963-4.0263 6.46923zm-1.5381 15.6527c-.6334.4977-1.2667 1.4477-1.2667 2.8953 0 3.0763 2.9857 4.7049 8.1882 4.7049 5.0668 0 7.6455-1.5381 7.6455-3.8453 0-2.262-2.443-2.8953-5.293-2.9858l-5.112-.181c-1.4929-.0452-2.9406-.2262-4.162-.5881zm-20.1926-13.2098c0 6.243 3.3024 9.4097 8.0978 9.4097 2.4881 0 4.6144-.8595 6.243-2.7143l.5429.4071c-1.4024 3.4382-4.4787 6.2883-9.2288 6.2883-6.1978 0-10.405-4.6597-10.405-11.4003 0-7.5549 5.3834-12.30504 10.7217-12.30504 5.5644 0 9.2287 5.02154 8.7764 9.63594h-14.748zm9.9978-2.7144c0-4.2524-1.4024-6.19773-4.162-6.19773-3.1667 0-5.2477 2.66913-5.7001 6.74063h9.8621zm40.8457 12.1241c-4.7954 0-8.0978-3.1667-8.0978-9.4097v-.6786h14.748c.4524-4.6144-3.212-9.63594-8.7764-9.63594-5.3383 0-10.7217 4.75014-10.7217 12.30504 0 6.7406 4.2072 11.4003 10.405 11.4003 4.7501 0 7.8264-2.8501 9.2288-6.2883l-.5429-.4071c-1.6286 1.8548-3.7548 2.7143-6.243 2.7143zm-2.262-18.32183c2.7596 0 4.162 1.94533 4.162 6.19773v.5429h-9.9978c.4524-4.0715 2.6691-6.74063 5.8358-6.74063zm17.3772 21.62433h-4.6597v-22.62461h4.4787v3.89561l.181.0452c2.0357-2.53337 4.2977-4.34294 7.6002-4.34294 4.2521 0 6.6051 2.66911 6.6051 6.78584v16.2409h-4.7051v-15.1099c0-2.5786-1.1762-4.7501-4.2977-4.7501-1.9905 0-3.8453.8595-5.2025 2.5786z" fill-rule="evenodd"/><path d="m147.503 4.76251h-9.525v-4.76251h9.525z"/><path d="m137.978 27.7568h9.525v4.7626h-9.525z"/><path d="m154.238 21.0218v-9.525h4.763v9.525z"/><path d="m131.244 11.4976v9.525h-4.763v-9.525z"/><path d="m154.238 11.4976h-6.735v-6.73509l3.367-3.36772 6.736 6.7352z"/><path d="m131.243 21.0217h6.735v6.7351l-3.367 3.3677-6.735-6.7352z"/><path d="m147.503 27.7568v-6.7351l6.735.0001 3.368 3.3675-6.735 6.7352z"/><path d="m137.978 4.76265v6.73525h-6.735l-3.367-3.36764 6.735-6.73521z"/></g></svg>