<svg viewBox="0 0 306 306" xmlns="http://www.w3.org/2000/svg"><g fill="#13205d"><path d="m275.93 154.74a23.21 23.21 0 0 0 -4.7 11.08c-1.22 7.63 2.51 13.07 8.9 14.09 7 1.11 9.59-4.64 11.6-9.26 1.37-3.11 2.54-5.81 4.73-5.46 2 .32 3.24 2.08 2.68 5.61a15.94 15.94 0 0 1 -5.74 9.6l8 1.27a19 19 0 0 0 4.4-9.86c1.16-7.25-2.17-13.06-8.56-14.08s-9.08 3.89-11 8.28c-1.59 3.56-2.7 6.8-5.42 6.37-2.33-.37-3.33-2.39-2.82-5.63a18.23 18.23 0 0 1 6.44-10.66z"/><path d="m297.24 208.47-30-15.56-3.33 6.43 10.63 5.51-2 3.78c-3.38 6.51-2.15 12.86 4 16s12 .52 15.4-6zm-9.12 3.43-2 3.9c-1.34 2.57-3.75 3.66-6.24 2.37s-3-3.89-1.65-6.46l2-3.9z"/><path d="m273.19 249.47-24.92-22.84-4.93 5.37 24.92 22.84z"/><path d="m229.72 286.49-11.32-19.34 24.9 11.38 6.38-3.73-17.09-29.17-6.08 3.56 11.28 19.25-25-11.22-6.25 3.66 17.09 29.17z"/><path d="m191.69 268-19.69 3.7 1.21 6.46 12.53-2.35 1.37 7.32-11.35 2.11 1.17 6.27 11.35-2.12 1.26 6.74-12.44 2.32 1.2 6.46 19.56-3.65z"/><path d="m86.76 257.07a23.36 23.36 0 0 0 -6.77-10c-5.75-5.16-12.34-5-16.66-.15-4.74 5.29-1.31 10.57 1.49 14.76 1.86 2.84 3.5 5.28 2 6.94-1.36 1.51-3.51 1.59-6.17-.8a16 16 0 0 1 -5-10l-5.38 6a18.93 18.93 0 0 0 5.9 9.05c5.46 4.9 12.15 5.26 16.47.44s1.66-9.74-1-13.73c-2.13-3.27-4.26-6-2.42-8 1.58-1.76 3.82-1.5 6.26.69a18.21 18.21 0 0 1 5.52 11.2z"/><path d="m30.15 245.92 29.29-16.87-3.62-6.28-10.37 6-2.12-3.68c-3.67-6.36-9.67-8.76-15.66-5.31s-6.92 9.84-3.26 16.2zm2-9.53-2.15-3.81c-1.45-2.51-1.06-5.13 1.37-6.52s4.88-.42 6.33 2.09l2.18 3.85z"/><path d="m8.55 203.32 32.72-8.47-1.83-7.06-32.72 8.47z"/><path d="m1.16 146.07 22.38 1.13-23.17 14.6-.37 7.37 33.76 1.7.35-7-22.28-1.12 23.08-14.75.36-7.23-33.76-1.77z"/><path d="m37.14 124.89 7.65-18.47-6.07-2.51-4.88 11.78-6.84-2.85 4.42-10.66-5.92-2.44-4.42 10.66-6.34-2.62 4.85-11.69-6.07-2.51-7.61 18.42z"/><path d="m103.21 42.61a23.17 23.17 0 0 0 12-.26c7.46-2 10.89-7.65 9.2-13.89-1.86-6.86-8.16-6.85-13.2-6.79-3.4 0-6.33.07-6.92-2.07-.53-2 .57-3.81 4-4.74a16 16 0 0 1 11.11 1.29l-2.11-7.79a19.07 19.07 0 0 0 -10.8 0c-7.08 1.92-11 7.34-9.33 13.58 1.73 6.39 7.27 6.69 12.06 6.64 3.9 0 7.31-.33 8 2.33.62 2.28-.81 4-4 4.88a18.22 18.22 0 0 1 -12.22-1.47z"/><path d="m143.35 1.09-1.82 33.75 7.23.39.65-11.95 4.24.23c7.33.39 12.61-3.34 13-10.23s-4.47-11.17-11.8-11.57zm6.88 6.91 4.39.24c2.89.15 4.88 1.91 4.73 4.7s-2.32 4.33-5.21 4.17l-4.39-.24z"/><path d="m190.82 6-10.68 32.11 6.92 2.3 10.68-32.07z"/><path d="m243.06 31-13.06 18.12.35-27.38-6-4.33-19.83 27.41 5.72 4.18 13.06-18.14-.18 27.39 5.88 4.24 19.79-27.41z"/><path d="m241.59 73 11.34 16.5 5.41-3.73-7.23-10.49 6.12-4.22 6.55 9.5 5.22-3.62-6.55-9.5 5.65-3.89 7.2 10.45 5.41-3.73-11.29-16.41z"/></g><path d="m0 0h306v306h-306z" fill="none"/></svg>