<svg fill="none" height="44" viewBox="0 0 22 44" width="22" xmlns="http://www.w3.org/2000/svg"><g fill="#041367"><path d="m16.221 3.35349c-.7432-.05025-1.2563-.27736-1.6042-.55279-.2161-.17651-.3943-.39472-.5242-.64162-.1298-.24691-.2086-.51744-.2316-.79546-.0454-.454215-.2947-1.36362-1.5463-1.36362-1.6091 0-4.13819.149796-6.07684.057019-.17777-.0090873-.35557.0175064-.52291.078213-.16733.060707-.32082.154299-.45142.275259s-.23566.266841-.30899.429042c-.07333.162207-.11345.337447-.11799.515397-.03189 1.29211-.14883 3.23365-.5412 4.79153-.04851.19326-.05002.39532-.00442.58929.0456.19396.137.37419.26654.52559.12954.15139.29345.26957.47803.34462.18458.07506.38445.10481.58289.08678 1.60329-.14497 3.91981-.34405 6.01791-.48901.3171-.02132.6208-.1363.8725-.33037s.4401-.45849.5414-.75976c.0899-.27157.1875-.59725.2822-.97319.0222-.08842.0635-.17092.1209-.24176.0574-.07085.1295-.12833.2114-.16844s.1715-.06189.2627-.06381c.0911-.00193.1816.01604.2651.05265.6311.28413 1.2003.28993 2.0237.2503.4436-.01933.8408-.3711.807-.85721-.0203-.20174-.1125-.38944-.2598-.52875s-.3398-.22092-.5424-.2299z"/><path d="m11.1312 9.66281-5.77145-.30636c-.48321-.02512-.94903.4059-.80696.86395.5412 1.7396.73641 2.7911.88234 4.1827.02819.2639.14918.5093.34139.6923.19222.183.44318.2918.70815.307 1.64775.1015 3.57573-.0203 4.72483-.1189.1264-.0107.2494-.0468.3615-.1061.1122-.0593.2112-.1406.2913-.239s.1396-.2119.1748-.3337c.0353-.1219.0457-.2496.0306-.3755-.0251-.2068-.0435-.4185-.058-.6311-.0037-.0523.0053-.1047.0263-.1527.021-.0481.0532-.0903.0941-.1232.0408-.0328.089-.0553.1404-.0655s.1045-.0078.1548.007c.6359.1933 1.1007.1063 1.7676-.0783.3421-.0966.6339-.3073.6397-.6629.0023-.1721-.0612-.3385-.1773-.4655-.1162-.1269-.2764-.2048-.4479-.2178-.6616-.0525-1.3024-.2551-1.8739-.5924-.1005-.0581-.1825-.1433-.2367-.2458-.0542-.1026-.0783-.2184-.0697-.3341.0081-.1249-.0087-.2503-.0495-.3687s-.1048-.2275-.1882-.32092c-.0833-.09345-.1845-.16938-.2975-.22337-.113-.05398-.2356-.08495-.3607-.0911z"/><path d="m13.7617 20.923c.6843.1662 1.211.0618 1.9483-.1488.4098-.1179.7567-.3866.7442-.8167-.0111-.2031-.0974-.3947-.2422-.5377-.1447-.1429-.3374-.2268-.5406-.2354-.6994-.0514-1.3806-.2472-2.0005-.575-.1548-.0786-.2843-.1991-.3738-.3478-.0896-.1487-.1355-.3195-.1326-.493.0021-.1198-.0225-.2386-.0721-.3476-.0496-.1091-.1229-.2057-.2145-.2829-.0917-.0771-.1994-.1328-.3154-.163-.1159-.0302-.2371-.0342-.3548-.0116-1.698.3103-4.05124.2716-5.43902.2107-.60112-.0261-1.12106.4784-1.05147 1.0766.20971 1.7947.2648 2.8403.1208 4.4185-.02187.2507.05017.5006.20214.7011.15198.2005.37304.3375.62029.3842 1.78305.3431 4.07056.1372 5.41196-.0406.3041-.0401.5827-.1912.7822-.4241.1996-.2329.3062-.5314.2992-.838-.0067-.3344-.0116-.6814-.0145-1.0312-.0011-.0769.0154-.153.0483-.2225.0328-.0696.081-.1307.1411-.1787.06-.048.1303-.0817.2053-.0984.0751-.0167.153-.0161.2277.0019z"/><path d="m4.83558 33.0998c1.75696.1807 4.23101.3412 6.33592.1237.4168-.0439.808-.2226 1.1141-.509s.5104-.6648.5819-1.0779c.0136-.0782.0271-.1604.0406-.2445.0316-.1947.1147-.3775.2406-.5294s.29-.2674.4755-.3346c.5413-.1951 1.1171-.2764 1.6913-.2387l1.5733.1054c.1143.0086.225.0437.3233.1026s.1816.1399.243.2366c.2314.3584.5716.633.9707.7835s.836.169 1.2464.0526c.4103-.1164.7725-.3615 1.0331-.6991.2607-.3377.406-.7501.4147-1.1765.0087-.4265-.1197-.8445-.3664-1.1925-.2466-.348-.5985-.6076-1.0038-.7406-.4052-.133-.8425-.1324-1.2474.0017s-.7561.3946-1.0018.7433c-.0661.0975-.1562.1764-.2617.2289-.1055.0524-.2228.0768-.3404.0707-.1239-.0075-.2425-.0527-.34-.1296-.0974-.0769-.169-.1817-.2051-.3005-.1231-.4294-.2053-.8694-.2454-1.3143-.013-.109.0037-.2195.0483-.3199.0445-.1003.1153-.1868.2049-.2503.2496-.1669.4388-.4099.5395-.6928s.1075-.5908.0194-.8779c-.0882-.2871-.2665-.5381-.5085-.7159-.2421-.1777-.535-.2727-.8353-.2708-.3004.0019-.5921.1005-.8319.2813s-.4149.434-.4994.7222-.0739.596.0304.8776c.1042.2817.2964.5222.5482.686.091.0619.1632.1477.2089.2479s.063.211.0501.3203c-.0301.3095-.0782.6171-.144.921-.0211.0909-.0626.1758-.1213.2482-.0588.0725-.1333.1306-.2179.1699s-.1771.0588-.2704.0571c-.0932-.0018-.1849-.0248-.2679-.0674-.1512-.077-.2943-.169-.4272-.2744-.1372-.1096-.2489-.2479-.3272-.4051-.0783-.1573-.1213-.3297-.126-.5053v-.0222c-.0053-.1699-.0449-.3369-.1166-.4909-.0716-.1541-.1737-.2921-.3002-.4055-.1265-.1135-.2747-.2001-.4356-.2547-.1609-.0545-.3312-.0759-.5006-.0627-1.267.0966-3.26752.1932-4.98679.1092-.29088-.0161-.57863.0668-.81629.2353-.23765.1685-.41117.4126-.49225.6924-.30925 1.0689-.87848 2.7862-1.67771 4.1605-.10836.1857-.16834.3957-.17445.6107-.00611.2149.04184.428.13947.6196s.24181.3556.4193.477c.1775.1214.38264.1963.5966.2178z"/><path d="m2.46181 36.0233c-.42136 1.1819-1.17614 3.0926-2.199584 4.8437-.747046 1.2786.193284 2.8858 1.669014 2.8858h9.14526c.3899.0001.7644-.1517 1.0441-.4233s.4426-.6415.4539-1.0312c0-.0696 0-.1421.0048-.2155.0062-.2409.0771-.4757.2053-.6798s.309-.3698.5234-.4799c.0725-.0377.1459-.0715.2184-.1034.5585-.2384 1.1604-.3585 1.7676-.3528h2.2865c.0668.0005.1324.0178.1907.0504.0583.0327.1074.0795.1428.1361.2366.3692.5885.6499 1.0011.7984.4125.1486.8626.1567 1.2802.0232.4177-.1336.7795-.4014 1.0293-.7617.2498-.3604.3736-.7932.3521-1.2312-.0279-.5-.2415-.9715-.5991-1.3221s-.8333-.555-1.3337-.573c-.3467-.0093-.6898.0725-.995.2371-.3052.1647-.5619.4065-.7446.7013-.0349.0583-.0841.1066-.143.1405-.0588.0338-.1254.052-.1933.0528-.0772.0008-.1529-.0215-.2173-.064-.0644-.0426-.1146-.1034-.1442-.1747-.1932-.4678-.4155-1.2168-.5131-2.3514-.0068-.1027.0144-.2053.0614-.2968.047-.0916.1179-.1687.2053-.2231.2547-.1665.4489-.4108.5536-.6966.1046-.2858.1143-.5977.0274-.8894-.0869-.2916-.2656-.5474-.5096-.7294-.244-.1819-.5402-.2801-.8445-.2801-.3044 0-.6006.0982-.8446.2801-.2439.182-.4227.4378-.5096.7294-.0868.2917-.0772.6036.0275.8894.1046.2858.2988.5301.5535.6966.0867.0535.1573.1294.2043.2198.0469.0903.0685.1917.0625.2934-.0708.7033-.2299 1.3949-.4736 2.0585-.0607.1683-.1798.3093-.3358.3971-.1559.0878-.3382.1166-.5137.0812-.5768-.1115-1.1052-.398-1.5134-.8204-.2648-.276-.4342-.6297-.4832-1.009-.0087-.0618-.0174-.1227-.0271-.1836-.0513-.3543-.2262-.679-.4938-.9169-.2675-.2378-.6105-.3734-.9684-.383-1.61776-.0405-4.54216-.1372-6.80456-.3392-.34255-.0333-.68644.0486-.9772.2327-.29076.1842-.51177.4601-.62803.784z"/></g></svg>